<?xml version="1.0" encoding="utf-8"?>
<!-- Svg Vector Icons : http://www.onlinewebfonts.com/icon -->
<!DOCTYPE svg PUBLIC "-//W3C//DTD SVG 1.1//EN" "http://www.w3.org/Graphics/SVG/1.1/DTD/svg11.dtd">
<svg version="1.1" xmlns="http://www.w3.org/2000/svg" xmlns:xlink="http://www.w3.org/1999/xlink" x="0px" y="0px" viewBox="0 0 1000 1000" enable-background="new 0 0 1000 1000" xml:space="preserve">
<metadata> Svg Vector Icons : http://www.onlinewebfonts.com/icon </metadata>
<g><g transform="translate(0.000000,512.000000) scale(0.100000,-0.100000)"><path d="M4540.6,5009.8c-953.3-92.1-1899-481.5-2639.4-1083.8c-218.7-176.5-563.9-525.6-736.6-742.3c-439.3-550.5-799.9-1294.8-949.5-1962.3C121.1,803.2,100,597.9,100,118.4c0-479.5,21.1-684.8,115.1-1102.9c151.5-681,521.7-1436.7,976.4-1994.9c176.5-218.7,525.6-564,742.3-736.6c550.5-439.2,1294.8-799.9,1962.3-949.5c418.2-94,623.4-115.1,1103-115.1s684.8,21.1,1103,115.1c500.6,111.3,1156.6,391.3,1588.2,677.1c746.2,496.8,1319.7,1149,1713,1948.9c239.8,489.1,376,928.4,462.3,1486.6c46,308.8,46,1033.9,0,1342.7c-86.3,558.2-222.5,997.5-462.3,1486.6c-257.1,521.7-542.9,920.7-955.3,1327.4c-404.7,400.9-774.9,663.7-1290.9,916.9c-483.4,237.9-932.2,377.9-1467.4,460.4C5447.9,5017.4,4791.9,5032.8,4540.6,5009.8z M4807.2,3540.4V2472l-214.8,13.4c-679,42.2-1358.1,140-1358.1,195.7c0,48,170.7,466.1,278.1,682.9c308.8,613.8,711.6,1049.2,1108.7,1196.9C4828.3,4637.6,4807.2,4756.6,4807.2,3540.4z M5371.2,4560.9c498.7-180.3,985.9-796,1317.8-1661.1L6781,2660l-99.8-23c-243.6-57.5-786.5-120.8-1273.7-151.5l-216.7-13.4v1068.4c0,920.7,3.8,1066.5,28.8,1066.5C5235,4606.9,5302.1,4585.8,5371.2,4560.9z M3641,4286.6c-84.4-103.6-197.6-255.1-251.3-339.5c-136.2-211-351-646.4-460.4-941.8c-86.3-230.2-97.8-249.4-140-243.6c-95.9,15.3-669.4,216.8-882.4,310.7l-226.3,99.8l49.9,61.4c122.8,149.6,506.4,470,784.5,657.9c153.5,103.6,464.2,274.3,642.6,352.9c138.1,59.5,587,224.4,619.6,226.3C3786.7,4472.7,3725.4,4388.3,3641,4286.6z M6441.5,4397.9c625.3-216.8,1127.9-514.1,1611.3-953.3c90.2-84.4,188-178.4,214.9-211l49.9-61.4L8052.8,3059c-395.1-172.6-861.3-328-888.1-297.3c-5.8,7.7-44.1,103.6-84.4,214.8c-92.1,259-341.4,771.1-470,968.7c-55.6,84.4-168.8,237.9-253.2,341.4c-84.4,101.7-147.7,186.1-143.9,186.1C6219,4472.7,6320.7,4438.2,6441.5,4397.9z M8772.1,2602.4c276.2-410.5,516-974.4,629.2-1478.9c51.8-230.2,105.5-608.1,105.5-740.4v-72.9h-974.5h-974.4l-25,370.2c-34.5,544.8-115.1,1103-214.8,1494.3c-19.2,80.6-36.5,159.2-36.5,172.6c0,17.3,38.4,36.4,101.6,51.8c280.1,71,884.3,305,1108.7,431.6l80.5,46l61.4-78.6C8666.6,2754,8729.9,2665.7,8772.1,2602.4z M1532.9,2815.4c180.3-103.6,838.2-354.9,1083.8-414.3c65.2-15.3,99.7-32.6,99.7-51.8c0-15.3-17.3-94-36.4-174.5c-99.8-391.3-180.3-949.5-214.8-1494.3l-24.9-370.2h-974.4H491.3v72.9c0,40.3,11.5,172.6,26.9,293.5c71,567.8,255.1,1135.6,529.4,1630.5c155.4,278.1,347.2,554.4,387.5,554.4C1444.6,2861.4,1488.8,2840.3,1532.9,2815.4z M3268.8,2247.6c274.3-63.3,1074.2-153.5,1371.5-153.5h166.9v-892v-892h-982.1h-980.2l11.5,306.9c19.2,464.2,99.7,1037.7,207.2,1482.7C3109.6,2285.9,3107.7,2284,3268.8,2247.6z M6934.5,2099.9c107.4-445,188-1018.5,207.1-1482.7l11.5-306.9H6173h-982.1v892v892h168.8c310.8,0,1195,97.8,1375.4,151.5C6880.8,2289.8,6890.4,2284,6934.5,2099.9z M2465.1-441.7c34.5-546.7,115.1-1104.9,214.8-1496.2c19.2-80.5,36.4-159.2,36.4-172.6c0-17.3-38.4-36.4-99.7-51.8c-282-71-886.2-305-1110.6-431.6l-80.6-46l-61.4,78.6c-351,466.1-634.9,1083.8-767.3,1674.6c-51.8,230.2-105.5,608-105.5,740.4v72.9h974.4h974.4L2465.1-441.7z M4807.2-965.4v-892h-166.9c-316.5,0-1179.7-95.9-1386.8-153.5c-140-40.3-145.8-36.4-189.9,149.6c-107.4,443.1-188,1016.6-207.2,1480.8l-11.5,306.9h980.2h982.1V-965.4z M7141.6-380.3c-19.2-464.2-99.7-1037.7-207.1-1480.8c-46-188-44.1-186.1-205.3-149.6c-274.3,63.3-1074.2,153.5-1369.6,153.5h-168.8v892v892H6173h980.2L7141.6-380.3z M9506.8-146.3c0-40.3-11.5-172.6-26.9-293.5c-88.2-705.9-349.1-1398.4-744.3-1977.7c-155.4-226.3-153.5-226.3-260.9-165c-203.3,113.2-847.8,358.7-1091.5,418.2c-67.1,15.3-101.6,32.6-101.6,51.8c0,15.3,17.3,94,36.5,174.6c99.7,391.3,180.3,949.5,214.8,1496.2l25,368.3h974.4h974.5V-146.3z M4807.2-3305.6c0-918.8-3.8-1064.6-28.8-1064.6c-15.3,0-82.5,21.1-151.5,46c-498.7,180.3-985.9,796-1317.8,1661.1l-92.1,239.8l99.7,23c159.2,38.4,596.6,97.8,867,120.8c138.1,9.6,283.9,23,326.1,24.9c42.2,3.8,126.6,7.7,188,9.6l109.3,3.8V-3305.6z M5843-2281.2c431.6-36.5,920.7-124.7,920.7-163c0-48-170.7-466.1-278.1-682.9c-249.4-494.9-560.1-876.6-888.1-1087.6c-99.7-63.3-322.2-155.4-377.9-155.4c-25,0-28.8,145.8-28.8,1066.5v1068.4l216.7-13.4C5524.6-2256.3,5722.2-2271.6,5843-2281.2z M2929.3-2768.5c109.3-295.4,324.2-730.8,460.4-941.8c53.7-84.4,166.9-235.9,251.3-337.6c84.4-103.6,147.7-188,143.9-188c-5.8,0-107.4,34.5-228.3,74.8c-625.3,216.7-1127.9,514.1-1611.3,953.3c-90.1,84.4-188,178.4-214.8,211l-49.9,61.4l264.7,115.1c297.3,130.4,826.7,312.7,874.7,303.1C2827.7-2519.1,2877.5-2632.3,2929.3-2768.5z M7655.7-2664.9c117-38.4,312.6-117,435.4-170.7l226.4-99.8l-49.9-61.4c-26.9-32.6-124.7-126.6-214.9-211c-483.4-439.3-986-736.6-1611.3-953.3c-120.8-40.3-222.5-74.8-228.3-74.8c-3.8,0,59.5,84.4,143.9,188c84.4,101.7,197.6,255.1,253.2,339.5c126.6,195.7,360.6,673.3,452.7,920.7c38.4,105.5,76.7,211,86.3,234l15.4,42.2l140-40.3C7381.4-2572.8,7540.6-2624.6,7655.7-2664.9z"/></g></g>
</svg>