<?xml version="1.0" encoding="utf-8"?>
<!-- Svg Vector Icons : http://www.onlinewebfonts.com/icon -->
<!DOCTYPE svg PUBLIC "-//W3C//DTD SVG 1.1//EN" "http://www.w3.org/Graphics/SVG/1.1/DTD/svg11.dtd">
<svg version="1.1" xmlns="http://www.w3.org/2000/svg" xmlns:xlink="http://www.w3.org/1999/xlink" x="0px" y="0px" viewBox="0 0 1000 1000" enable-background="new 0 0 1000 1000" xml:space="preserve">
<metadata> Svg Vector Icons : http://www.onlinewebfonts.com/icon </metadata>
<g><g transform="translate(0.000000,512.000000) scale(0.100000,-0.100000)"><path d="M4130.3,4972.1c-47.9-45.9-47.9-49.8-47.9-411.6c0-361.8,0-365.6,47.9-411.6c42.1-44,61.3-47.9,229.7-47.9h181.9l-3.8-319.7l-5.7-319.7l-164.6-23c-633.6-91.9-1273-359.9-1814.8-760l-179.9-132.1l-124.4,124.4l-124.4,124.4l49.8,61.3c90,105.3,76.6,134-189.5,403.9c-134,134-262.3,248.9-287.1,254.6c-24.9,7.7-70.8,0-99.5-15.3c-28.7-15.3-204.8-181.9-390.5-371.4c-304.4-306.3-340.7-350.3-340.7-407.8c0-55.5,28.7-91.9,245-308.2c271.8-271.8,310.1-291,421.1-199.1l55.5,47.9l116.8-118.7c65.1-67,118.7-124.4,118.7-132.1c0-5.7-57.4-90-130.2-183.8C875.9,737.7,652-661.7,1086.5-1963.4c515-1541,1897.1-2636,3530-2798.7c857.6-84.2,1799.5,132.1,2528.8,583.9c850,528.3,1464.5,1297.9,1772.6,2222.5c432.6,1294.1,206.8,2695.4-608.7,3782.7c-72.7,93.8-130.2,178-130.2,183.8c0,7.7,53.6,65.1,118.7,132.1l116.8,118.7l55.5-47.9c109.1-90,147.4-72.7,411.6,187.6c130.2,130.2,241.2,254.6,248.9,279.5c5.7,23,0,67-11.5,97.6c-30.6,70.8-666.2,702.6-733.2,727.4c-32.5,11.5-70.8,13.4-95.7,3.8c-24.9-9.6-149.3-124.4-277.6-254.6c-260.3-264.2-273.8-292.9-183.8-398.2l49.8-61.3l-126.3-126.3l-126.4-124.4l-82.3,67c-354.2,289.1-913.1,574.3-1384,710.2c-183.8,53.6-511.1,122.5-622.1,132.1l-67,5.7l-5.7,321.6l-3.8,319.7h181.9c168.5,0,187.6,3.8,229.7,47.9c47.9,45.9,47.9,49.8,47.9,411.6c0,361.8,0,365.6-47.9,411.6l-46,47.9h-825.1h-825.1L4130.3,4972.1z M5361.2,2854.9c438.4-47.9,838.5-166.5,1229-363.7c675.8-344.6,1204.1-872.9,1548.7-1548.7c658.5-1296,457.5-2831.3-513-3930.1C6886.9-3824.1,5744-4268.2,4641.4-4147.6c-438.4,47.9-838.5,166.5-1229,363.7c-675.7,344.6-1204.1,872.9-1548.7,1548.7c-622.2,1225.2-480.5,2670.5,371.4,3761.6C2972.1,2470.1,4182,2985.1,5361.2,2854.9z"/><path d="M5876.1,1790.6c-122.5-201-419.2-744.7-746.6-1372.6L4890.2-39.5l-82.3-28.7c-428.8-143.6-557.1-691.1-237.4-1008.8c126.3-126.3,239.3-172.3,430.7-172.3c151.2,0,172.3,5.7,287.1,68.9c202.9,111.1,325.4,313.9,325.4,536c0,103.4-44,250.8-95.7,321.6c-32.5,45.9-32.5,53.6,13.4,220.2c72.7,271.8,344.6,1359.2,388.6,1562.1c61.3,264.2,91.9,478.6,74.7,488.1C5987.1,1953.3,5933.5,1882.5,5876.1,1790.6z"/></g></g>
</svg>